<?xml version="1.0" standalone="no"?>
<!DOCTYPE svg PUBLIC "-//W3C//DTD SVG 20010904//EN"
 "http://www.w3.org/TR/2001/REC-SVG-20010904/DTD/svg10.dtd">
<svg version="1.0" xmlns="http://www.w3.org/2000/svg"
 width="633.000000pt" height="633.000000pt" viewBox="0 0 633.000000 633.000000"
 preserveAspectRatio="xMidYMid meet">
<metadata>
Created by potrace 1.14, written by Peter Selinger 2001-2017
</metadata>
<g transform="translate(0.000000,633.000000) scale(0.100000,-0.100000)"
fill="#000000" stroke="none">
<path d="M4750 4149 c-19 -5 -102 -10 -185 -13 -82 -3 -186 -8 -230 -11 -159
-10 -261 -17 -290 -20 -16 -1 -68 -6 -115 -9 -47 -3 -107 -9 -135 -12 -27 -4
-408 -7 -845 -9 -437 -1 -815 -4 -840 -8 -25 -3 -85 -8 -135 -11 -49 -4 -103
-9 -120 -12 -16 -3 -50 -7 -75 -9 -44 -3 -109 -12 -160 -21 -14 -2 -41 -7 -60
-10 -19 -3 -55 -10 -80 -16 -25 -5 -79 -16 -120 -24 -41 -8 -82 -16 -90 -18
-8 -1 -32 -6 -52 -11 -21 -4 -56 -23 -79 -44 -37 -33 -40 -40 -41 -86 0 -50
17 -113 53 -190 28 -61 49 -125 49 -151 0 -16 4 -22 14 -18 9 3 21 -5 31 -20
10 -14 25 -26 35 -26 29 0 39 -21 30 -67 -9 -55 -4 -119 15 -173 8 -23 15 -44
15 -46 0 -2 -15 -6 -34 -9 -52 -10 -93 -40 -107 -79 -10 -27 -19 -36 -35 -36
-26 0 -31 -6 -38 -41 -2 -13 -9 -36 -15 -51 -6 -15 -8 -34 -5 -42 3 -7 7 -42
9 -77 5 -95 15 -153 27 -160 7 -5 6 -18 -2 -44 -14 -42 -18 -36 65 -84 51 -30
158 -68 211 -76 16 -2 47 -7 69 -10 22 -3 137 -8 255 -9 204 -4 322 -16 360
-36 12 -6 23 -5 36 5 27 20 37 18 31 -5 -4 -15 0 -20 13 -20 11 0 22 -4 25
-10 11 -18 45 -11 45 9 0 10 7 21 15 25 11 4 14 13 9 31 -12 47 14 26 31 -25
16 -49 35 -67 35 -32 0 15 31 52 44 52 2 0 7 -16 10 -35 7 -35 19 -44 32 -24
4 8 25 9 63 4 71 -9 140 -10 166 -3 12 3 31 0 44 -7 17 -9 34 -10 58 -3 20 5
39 6 46 0 7 -5 53 -8 102 -6 85 2 356 4 475 3 98 -1 312 9 317 15 3 2 16 1 29
-4 13 -5 25 -6 28 -2 2 4 37 5 76 2 39 -3 74 -2 76 2 3 4 15 4 27 0 25 -8 492
-7 672 1 161 8 238 16 315 32 36 8 81 17 100 20 19 3 49 10 65 15 17 5 41 11
55 14 90 15 97 18 116 49 44 74 62 176 69 398 2 90 7 196 11 234 24 272 19
643 -10 780 -29 136 -138 239 -290 275 -53 12 -230 11 -286 -1z m-456 -336
c-12 -196 -14 -249 -17 -375 -2 -109 0 -138 10 -138 7 0 13 7 13 15 0 8 3 15
8 15 4 0 25 17 47 37 145 132 319 73 379 -128 16 -51 24 -228 12 -248 -3 -5
-8 -26 -12 -47 -9 -57 -61 -157 -108 -207 -75 -80 -183 -125 -289 -122 -47 2
-191 16 -209 21 -5 1 -17 2 -29 3 -21 1 -21 3 -14 184 9 224 8 343 -10 894 -3
114 1 129 35 131 15 1 47 6 125 22 22 4 45 8 51 9 8 1 11 -20 8 -66z m-2369
-118 c-2 -30 -7 -60 -11 -66 -4 -7 -3 -10 2 -6 5 3 8 -14 7 -36 -2 -23 -6
-123 -10 -222 -6 -162 -6 -269 0 -640 l2 -110 -110 0 -110 0 5 105 c6 132 5
603 -2 817 -3 89 -2 165 1 170 3 4 13 9 21 9 8 1 31 5 50 8 19 4 48 9 65 12
16 3 31 6 32 8 2 2 17 3 33 4 l29 1 -4 -54z m736 32 c107 -32 180 -105 209
-210 39 -140 4 -266 -101 -368 -76 -75 -164 -109 -299 -115 -30 -1 -63 -2 -73
-3 -10 -1 -15 -5 -12 -11 3 -5 8 -69 11 -142 2 -73 5 -162 7 -198 l2 -65 -108
-1 -108 0 7 135 c9 170 9 436 0 745 -5 163 -4 241 3 245 6 4 100 6 208 6 151
-1 211 -6 254 -18z m917 4 c12 -6 22 -10 22 -7 0 10 101 -34 143 -62 66 -46
147 -156 147 -200 0 -10 4 -22 9 -28 15 -15 23 -83 24 -189 1 -172 -24 -279
-91 -390 -39 -64 -130 -160 -162 -170 -11 -4 -20 -11 -20 -16 0 -5 -6 -9 -12
-9 -7 0 -26 -7 -43 -16 -57 -29 -152 -44 -282 -44 -117 0 -217 5 -268 14 -22
3 -23 24 -11 256 8 142 8 144 1 365 -12 413 -13 500 -5 505 18 11 526 3 548
-9z"/>
<path d="M4354 3214 c-83 -24 -81 -21 -78 -136 1 -57 3 -142 5 -190 l4 -86 40
-6 c53 -7 136 -1 160 12 70 37 99 139 81 279 -9 63 -22 89 -56 114 -35 27 -93
31 -156 13z"/>
<path d="M2407 3572 c-4 -9 -8 -101 -10 -257 l-2 -120 87 2 c104 2 139 20 170
91 50 111 16 239 -72 274 -29 12 -168 19 -173 10z"/>
<path d="M3249 3541 c0 -14 -3 -57 -6 -96 -11 -148 -8 -654 3 -665 16 -16 230
-16 269 -1 113 46 178 167 188 353 3 49 -6 161 -16 208 -20 96 -68 161 -145
197 -48 23 -69 26 -174 28 l-118 3 -1 -27z"/>
</g>
</svg>
